<svg width="500" height="306" viewBox="0 0 500 306" fill="none" xmlns="http://www.w3.org/2000/svg">
<g clip-path="url(#clip0_484_452)">
<rect width="500" height="305.29" fill="white"/>
<g filter="url(#filter0_d_484_452)">
<rect x="164" y="125" width="195" height="48" fill="#FF237B"/>
</g>
<path d="M229.088 158H235.736C239 158 241.064 156.248 241.064 153.488C241.064 151.376 240.056 149.984 238.064 149.336C239.84 148.64 240.728 147.272 240.728 145.256C240.728 142.496 238.688 140.816 235.376 140.816H229.088V158ZM235.352 142.352C237.656 142.352 238.952 143.48 238.952 145.4C238.952 147.44 237.728 148.64 235.568 148.64H230.816V142.352H235.352ZM235.736 150.152C237.968 150.152 239.312 151.328 239.312 153.272C239.312 155.264 237.992 156.44 235.736 156.44H230.816V150.152H235.736ZM251.982 146.384V152.552C251.982 155.312 250.662 156.8 248.43 156.8C246.582 156.8 245.358 155.816 245.358 153.056V146.36H243.678V153.584C243.678 156.416 245.166 158.288 247.902 158.288C249.726 158.288 251.334 157.376 251.982 156.032L252.198 158H253.638V146.384H251.982ZM259.751 158V147.752H265.199V158H266.855V147.752H269.159V146.384H266.855V142.712H265.199V146.384H259.751V142.712H258.119V146.384H255.791V147.752H258.119V158H259.751ZM270.381 152.192C270.381 155.72 272.877 158.288 276.285 158.288C279.693 158.288 282.189 155.72 282.189 152.192C282.189 148.64 279.693 146.072 276.285 146.072C272.877 146.072 270.381 148.64 270.381 152.192ZM272.061 152.168C272.061 149.48 273.789 147.56 276.285 147.56C278.757 147.56 280.509 149.48 280.509 152.168C280.509 154.904 278.757 156.8 276.285 156.8C273.789 156.8 272.061 154.904 272.061 152.168ZM286.493 158V151.928C286.493 149.312 287.837 147.584 290.213 147.584C292.133 147.584 293.357 148.544 293.357 151.256V158H295.013V150.896C295.013 147.968 293.693 146.072 290.501 146.072C288.821 146.072 287.285 146.912 286.517 148.4L286.277 146.384H284.837V158H286.493Z" fill="#F1F2F3"/>
<rect x="403" y="125" width="218" height="48" rx="3" fill="#FF237B"/>
<path d="M479.088 158H485.736C489 158 491.064 156.248 491.064 153.488C491.064 151.376 490.056 149.984 488.064 149.336C489.84 148.64 490.728 147.272 490.728 145.256C490.728 142.496 488.688 140.816 485.376 140.816H479.088V158ZM485.352 142.352C487.656 142.352 488.952 143.48 488.952 145.4C488.952 147.44 487.728 148.64 485.568 148.64H480.816V142.352H485.352ZM485.736 150.152C487.968 150.152 489.312 151.328 489.312 153.272C489.312 155.264 487.992 156.44 485.736 156.44H480.816V150.152H485.736ZM501.982 146.384V152.552C501.982 155.312 500.662 156.8 498.43 156.8C496.582 156.8 495.358 155.816 495.358 153.056V146.36H493.678V153.584C493.678 156.416 495.166 158.288 497.902 158.288C499.726 158.288 501.334 157.376 501.982 156.032L502.198 158H503.638V146.384H501.982ZM509.751 158V147.752H515.199V158H516.855V147.752H519.159V146.384H516.855V142.712H515.199V146.384H509.751V142.712H508.119V146.384H505.791V147.752H508.119V158H509.751ZM520.381 152.192C520.381 155.72 522.877 158.288 526.285 158.288C529.693 158.288 532.189 155.72 532.189 152.192C532.189 148.64 529.693 146.072 526.285 146.072C522.877 146.072 520.381 148.64 520.381 152.192ZM522.061 152.168C522.061 149.48 523.789 147.56 526.285 147.56C528.757 147.56 530.509 149.48 530.509 152.168C530.509 154.904 528.757 156.8 526.285 156.8C523.789 156.8 522.061 154.904 522.061 152.168ZM536.493 158V151.928C536.493 149.312 537.837 147.584 540.213 147.584C542.133 147.584 543.357 148.544 543.357 151.256V158H545.013V150.896C545.013 147.968 543.693 146.072 540.501 146.072C538.821 146.072 537.285 146.912 536.517 148.4L536.277 146.384H534.837V158H536.493Z" fill="#F1F2F3"/>
<rect x="-97.5" y="125.5" width="217" height="47" rx="2.5" stroke="#FF237B"/>
<path d="M-21.912 158H-15.264C-12 158 -9.936 156.248 -9.936 153.488C-9.936 151.376 -10.944 149.984 -12.936 149.336C-11.16 148.64 -10.272 147.272 -10.272 145.256C-10.272 142.496 -12.312 140.816 -15.624 140.816H-21.912V158ZM-15.648 142.352C-13.344 142.352 -12.048 143.48 -12.048 145.4C-12.048 147.44 -13.272 148.64 -15.432 148.64H-20.184V142.352H-15.648ZM-15.264 150.152C-13.032 150.152 -11.688 151.328 -11.688 153.272C-11.688 155.264 -13.008 156.44 -15.264 156.44H-20.184V150.152H-15.264ZM0.981751 146.384V152.552C0.981751 155.312 -0.338249 156.8 -2.57025 156.8C-4.41825 156.8 -5.64225 155.816 -5.64225 153.056V146.36H-7.32225V153.584C-7.32225 156.416 -5.83425 158.288 -3.09825 158.288C-1.27425 158.288 0.33375 157.376 0.981751 156.032L1.19775 158H2.63775V146.384H0.981751ZM8.75138 158V147.752H14.1994V158H15.8554V147.752H18.1594V146.384H15.8554V142.712H14.1994V146.384H8.75138V142.712H7.11938V146.384H4.79138V147.752H7.11938V158H8.75138ZM19.3808 152.192C19.3808 155.72 21.8768 158.288 25.2848 158.288C28.6928 158.288 31.1888 155.72 31.1888 152.192C31.1888 148.64 28.6928 146.072 25.2848 146.072C21.8768 146.072 19.3808 148.64 19.3808 152.192ZM21.0608 152.168C21.0608 149.48 22.7888 147.56 25.2848 147.56C27.7568 147.56 29.5088 149.48 29.5088 152.168C29.5088 154.904 27.7568 156.8 25.2848 156.8C22.7888 156.8 21.0608 154.904 21.0608 152.168ZM35.4934 158V151.928C35.4934 149.312 36.8374 147.584 39.2134 147.584C41.1334 147.584 42.3574 148.544 42.3574 151.256V158H44.0134V150.896C44.0134 147.968 42.6934 146.072 39.5014 146.072C37.8214 146.072 36.2854 146.912 35.5174 148.4L35.2774 146.384H33.8374V158H35.4934Z" fill="#FF237B"/>
<g filter="url(#filter1_d_484_452)">
<rect x="238" y="32" width="195" height="48" fill="#FF237B"/>
</g>
<path d="M303.088 65H309.736C313 65 315.064 63.248 315.064 60.488C315.064 58.376 314.056 56.984 312.064 56.336C313.84 55.64 314.728 54.272 314.728 52.256C314.728 49.496 312.688 47.816 309.376 47.816H303.088V65ZM309.352 49.352C311.656 49.352 312.952 50.48 312.952 52.4C312.952 54.44 311.728 55.64 309.568 55.64H304.816V49.352H309.352ZM309.736 57.152C311.968 57.152 313.312 58.328 313.312 60.272C313.312 62.264 311.992 63.44 309.736 63.44H304.816V57.152H309.736ZM325.982 53.384V59.552C325.982 62.312 324.662 63.8 322.43 63.8C320.582 63.8 319.358 62.816 319.358 60.056V53.36H317.678V60.584C317.678 63.416 319.166 65.288 321.902 65.288C323.726 65.288 325.334 64.376 325.982 63.032L326.198 65H327.638V53.384H325.982ZM333.751 65V54.752H339.199V65H340.855V54.752H343.159V53.384H340.855V49.712H339.199V53.384H333.751V49.712H332.119V53.384H329.791V54.752H332.119V65H333.751ZM344.381 59.192C344.381 62.72 346.877 65.288 350.285 65.288C353.693 65.288 356.189 62.72 356.189 59.192C356.189 55.64 353.693 53.072 350.285 53.072C346.877 53.072 344.381 55.64 344.381 59.192ZM346.061 59.168C346.061 56.48 347.789 54.56 350.285 54.56C352.757 54.56 354.509 56.48 354.509 59.168C354.509 61.904 352.757 63.8 350.285 63.8C347.789 63.8 346.061 61.904 346.061 59.168ZM360.493 65V58.928C360.493 56.312 361.837 54.584 364.213 54.584C366.133 54.584 367.357 55.544 367.357 58.256V65H369.013V57.896C369.013 54.968 367.693 53.072 364.501 53.072C362.821 53.072 361.285 53.912 360.517 55.4L360.277 53.384H358.837V65H360.493Z" fill="#F1F2F3"/>
<rect x="477" y="32" width="218" height="48" rx="3" fill="#FF237B"/>
<rect x="-23.5" y="32.5" width="217" height="47" rx="2.5" stroke="#FF237B"/>
<path d="M52.088 65H58.736C62 65 64.064 63.248 64.064 60.488C64.064 58.376 63.056 56.984 61.064 56.336C62.84 55.64 63.728 54.272 63.728 52.256C63.728 49.496 61.688 47.816 58.376 47.816H52.088V65ZM58.352 49.352C60.656 49.352 61.952 50.48 61.952 52.4C61.952 54.44 60.728 55.64 58.568 55.64H53.816V49.352H58.352ZM58.736 57.152C60.968 57.152 62.312 58.328 62.312 60.272C62.312 62.264 60.992 63.44 58.736 63.44H53.816V57.152H58.736ZM74.9818 53.384V59.552C74.9818 62.312 73.6618 63.8 71.4297 63.8C69.5818 63.8 68.3578 62.816 68.3578 60.056V53.36H66.6777V60.584C66.6777 63.416 68.1658 65.288 70.9018 65.288C72.7258 65.288 74.3338 64.376 74.9818 63.032L75.1978 65H76.6378V53.384H74.9818ZM82.7514 65V54.752H88.1994V65H89.8554V54.752H92.1594V53.384H89.8554V49.712H88.1994V53.384H82.7514V49.712H81.1194V53.384H78.7914V54.752H81.1194V65H82.7514ZM93.3808 59.192C93.3808 62.72 95.8768 65.288 99.2848 65.288C102.693 65.288 105.189 62.72 105.189 59.192C105.189 55.64 102.693 53.072 99.2848 53.072C95.8768 53.072 93.3808 55.64 93.3808 59.192ZM95.0608 59.168C95.0608 56.48 96.7888 54.56 99.2848 54.56C101.757 54.56 103.509 56.48 103.509 59.168C103.509 61.904 101.757 63.8 99.2848 63.8C96.7888 63.8 95.0608 61.904 95.0608 59.168ZM109.493 65V58.928C109.493 56.312 110.837 54.584 113.213 54.584C115.133 54.584 116.357 55.544 116.357 58.256V65H118.013V57.896C118.013 54.968 116.693 53.072 113.501 53.072C111.821 53.072 110.285 53.912 109.517 55.4L109.277 53.384H107.837V65H109.493Z" fill="#FF237B"/>
<g filter="url(#filter2_d_484_452)">
<rect x="66" y="225" width="195" height="53" fill="#FF237B"/>
</g>
<path d="M131.088 258.833H137.736C141 258.833 143.064 257.081 143.064 254.321C143.064 252.209 142.056 250.817 140.064 250.169C141.84 249.473 142.728 248.105 142.728 246.089C142.728 243.329 140.688 241.649 137.376 241.649H131.088V258.833ZM137.352 243.185C139.656 243.185 140.952 244.313 140.952 246.233C140.952 248.273 139.728 249.473 137.568 249.473H132.816V243.185H137.352ZM137.736 250.985C139.968 250.985 141.312 252.161 141.312 254.105C141.312 256.097 139.992 257.273 137.736 257.273H132.816V250.985H137.736ZM153.982 247.217V253.385C153.982 256.145 152.662 257.633 150.43 257.633C148.582 257.633 147.358 256.649 147.358 253.889V247.193H145.678V254.417C145.678 257.249 147.166 259.121 149.902 259.121C151.726 259.121 153.334 258.209 153.982 256.865L154.198 258.833H155.638V247.217H153.982ZM161.751 258.833V248.585H167.199V258.833H168.855V248.585H171.159V247.217H168.855V243.545H167.199V247.217H161.751V243.545H160.119V247.217H157.791V248.585H160.119V258.833H161.751ZM172.381 253.025C172.381 256.553 174.877 259.121 178.285 259.121C181.693 259.121 184.189 256.553 184.189 253.025C184.189 249.473 181.693 246.905 178.285 246.905C174.877 246.905 172.381 249.473 172.381 253.025ZM174.061 253.001C174.061 250.313 175.789 248.393 178.285 248.393C180.757 248.393 182.509 250.313 182.509 253.001C182.509 255.737 180.757 257.633 178.285 257.633C175.789 257.633 174.061 255.737 174.061 253.001ZM188.493 258.833V252.761C188.493 250.145 189.837 248.417 192.213 248.417C194.133 248.417 195.357 249.377 195.357 252.089V258.833H197.013V251.729C197.013 248.801 195.693 246.905 192.501 246.905C190.821 246.905 189.285 247.745 188.517 249.233L188.277 247.217H186.837V258.833H188.493Z" fill="#F1F2F3"/>
<rect x="305" y="225" width="218" height="48" rx="3" fill="#FF237B"/>
<path d="M381.088 258H387.736C391 258 393.064 256.248 393.064 253.488C393.064 251.376 392.056 249.984 390.064 249.336C391.84 248.64 392.728 247.272 392.728 245.256C392.728 242.496 390.688 240.816 387.376 240.816H381.088V258ZM387.352 242.352C389.656 242.352 390.952 243.48 390.952 245.4C390.952 247.44 389.728 248.64 387.568 248.64H382.816V242.352H387.352ZM387.736 250.152C389.968 250.152 391.312 251.328 391.312 253.272C391.312 255.264 389.992 256.44 387.736 256.44H382.816V250.152H387.736ZM403.982 246.384V252.552C403.982 255.312 402.662 256.8 400.43 256.8C398.582 256.8 397.358 255.816 397.358 253.056V246.36H395.678V253.584C395.678 256.416 397.166 258.288 399.902 258.288C401.726 258.288 403.334 257.376 403.982 256.032L404.198 258H405.638V246.384H403.982ZM411.751 258V247.752H417.199V258H418.855V247.752H421.159V246.384H418.855V242.712H417.199V246.384H411.751V242.712H410.119V246.384H407.791V247.752H410.119V258H411.751ZM422.381 252.192C422.381 255.72 424.877 258.288 428.285 258.288C431.693 258.288 434.189 255.72 434.189 252.192C434.189 248.64 431.693 246.072 428.285 246.072C424.877 246.072 422.381 248.64 422.381 252.192ZM424.061 252.168C424.061 249.48 425.789 247.56 428.285 247.56C430.757 247.56 432.509 249.48 432.509 252.168C432.509 254.904 430.757 256.8 428.285 256.8C425.789 256.8 424.061 254.904 424.061 252.168ZM438.493 258V251.928C438.493 249.312 439.837 247.584 442.213 247.584C444.133 247.584 445.357 248.544 445.357 251.256V258H447.013V250.896C447.013 247.968 445.693 246.072 442.501 246.072C440.821 246.072 439.285 246.912 438.517 248.4L438.277 246.384H436.837V258H438.493Z" fill="#F1F2F3"/>
<rect x="-195.5" y="225.5" width="217" height="47" rx="2.5" stroke="#FF237B"/>
</g>
<defs>
<filter id="filter0_d_484_452" x="140" y="108" width="243" height="96" filterUnits="userSpaceOnUse" color-interpolation-filters="sRGB">
<feFlood flood-opacity="0" result="BackgroundImageFix"/>
<feColorMatrix in="SourceAlpha" type="matrix" values="0 0 0 0 0 0 0 0 0 0 0 0 0 0 0 0 0 0 127 0" result="hardAlpha"/>
<feOffset dy="7"/>
<feGaussianBlur stdDeviation="12"/>
<feComposite in2="hardAlpha" operator="out"/>
<feColorMatrix type="matrix" values="0 0 0 0 1 0 0 0 0 0.137255 0 0 0 0 0.482353 0 0 0 0.71 0"/>
<feBlend mode="normal" in2="BackgroundImageFix" result="effect1_dropShadow_484_452"/>
<feBlend mode="normal" in="SourceGraphic" in2="effect1_dropShadow_484_452" result="shape"/>
</filter>
<filter id="filter1_d_484_452" x="214" y="15" width="243" height="96" filterUnits="userSpaceOnUse" color-interpolation-filters="sRGB">
<feFlood flood-opacity="0" result="BackgroundImageFix"/>
<feColorMatrix in="SourceAlpha" type="matrix" values="0 0 0 0 0 0 0 0 0 0 0 0 0 0 0 0 0 0 127 0" result="hardAlpha"/>
<feOffset dy="7"/>
<feGaussianBlur stdDeviation="12"/>
<feComposite in2="hardAlpha" operator="out"/>
<feColorMatrix type="matrix" values="0 0 0 0 1 0 0 0 0 0.137255 0 0 0 0 0.482353 0 0 0 0.71 0"/>
<feBlend mode="normal" in2="BackgroundImageFix" result="effect1_dropShadow_484_452"/>
<feBlend mode="normal" in="SourceGraphic" in2="effect1_dropShadow_484_452" result="shape"/>
</filter>
<filter id="filter2_d_484_452" x="42" y="208" width="243" height="101" filterUnits="userSpaceOnUse" color-interpolation-filters="sRGB">
<feFlood flood-opacity="0" result="BackgroundImageFix"/>
<feColorMatrix in="SourceAlpha" type="matrix" values="0 0 0 0 0 0 0 0 0 0 0 0 0 0 0 0 0 0 127 0" result="hardAlpha"/>
<feOffset dy="7"/>
<feGaussianBlur stdDeviation="12"/>
<feComposite in2="hardAlpha" operator="out"/>
<feColorMatrix type="matrix" values="0 0 0 0 1 0 0 0 0 0.137255 0 0 0 0 0.482353 0 0 0 0.71 0"/>
<feBlend mode="normal" in2="BackgroundImageFix" result="effect1_dropShadow_484_452"/>
<feBlend mode="normal" in="SourceGraphic" in2="effect1_dropShadow_484_452" result="shape"/>
</filter>
<clipPath id="clip0_484_452">
<rect width="500" height="305.29" fill="white"/>
</clipPath>
</defs>
</svg>
