<svg width="500" height="305" viewBox="0 0 500 305" fill="none" xmlns="http://www.w3.org/2000/svg">
<rect width="500" height="305" fill="#FFE247"/>
<path d="M293.084 147.613C295.315 150.532 295.315 154.473 293.084 157.387C286.054 166.564 269.189 185.458 249.499 185.458C229.808 185.458 212.943 166.564 205.914 157.387C204.828 155.989 204.238 154.27 204.238 152.5C204.238 150.73 204.828 149.01 205.914 147.613C212.943 138.436 229.808 119.542 249.499 119.542C269.189 119.542 286.054 138.436 293.084 147.613V147.613Z" stroke="#78350F" stroke-width="6" stroke-linecap="round" stroke-linejoin="round"/>
<path d="M249.5 166.625C257.301 166.625 263.625 160.301 263.625 152.5C263.625 144.699 257.301 138.375 249.5 138.375C241.699 138.375 235.375 144.699 235.375 152.5C235.375 160.301 241.699 166.625 249.5 166.625Z" stroke="#78350F" stroke-width="6" stroke-linecap="round" stroke-linejoin="round"/>
<circle cx="249.5" cy="152.5" r="82.5" stroke="#78350F" stroke-width="6"/>
</svg>
