<svg width="500" height="306" viewBox="0 0 500 306" fill="none" xmlns="http://www.w3.org/2000/svg">
<rect width="500" height="305.29" fill="#08D9D6"/>
<path d="M155.816 48.632H161.576L196.568 110.552L231.416 48.632H236.744V148.856H155.816V48.632ZM161.144 143.672H231.416V59.432L199.016 116.456H193.976L161.144 58.568V143.672ZM263.85 148.856V48.632H269.466L339.45 116.744V48.632H344.778V148.856H263.85ZM197 274.592C183.08 274.592 172.328 271.328 164.744 264.8C157.256 258.176 153.56 248.288 153.656 235.136H177.128C177.032 240.608 178.664 244.784 182.024 247.664C185.384 250.544 190.088 251.984 196.136 251.984C201.128 251.984 205.064 251.168 207.944 249.536C210.824 247.904 212.264 245.408 212.264 242.048C212.264 239.264 210.776 237.248 207.8 236C204.92 234.752 202.04 233.888 199.16 233.408C196.28 232.832 194.504 232.496 193.832 232.4C186.44 230.96 180.056 229.232 174.68 227.216C169.304 225.104 164.792 221.936 161.144 217.712C157.496 213.488 155.672 207.92 155.672 201.008C155.672 194.096 157.496 188.24 161.144 183.44C164.792 178.544 169.64 174.896 175.688 172.496C181.832 170.096 188.504 168.896 195.704 168.896C204.44 168.896 211.976 170.528 218.312 173.792C224.744 177.056 229.784 182 233.432 188.624C235.256 191.792 236.36 194.864 236.744 197.84C237.128 200.72 237.32 203.552 237.32 206.336H213.848C213.848 201.152 212.456 197.36 209.672 194.96C206.888 192.464 202.568 191.216 196.712 191.216C192.008 191.216 188.36 192.032 185.768 193.664C183.176 195.296 181.88 197.504 181.88 200.288C181.88 203.36 183.608 205.616 187.064 207.056C190.52 208.496 194.888 209.792 200.168 210.944C208.808 212.672 215.528 214.352 220.328 215.984C225.224 217.52 229.448 220.304 233 224.336C236.552 228.368 238.328 234.032 238.328 241.328C238.328 248.24 236.408 254.192 232.568 259.184C228.728 264.176 223.64 268.016 217.304 270.704C211.064 273.296 204.296 274.592 197 274.592ZM264.282 272V171.776H269.61V200.144C279.498 200.144 288.858 202.064 297.69 205.904C306.522 209.648 314.25 214.928 320.874 221.744C327.498 228.464 332.586 236.192 336.138 244.928V171.776H341.466V272H336.138C336.138 260 333.162 248.912 327.21 238.736C321.258 228.464 313.146 220.352 302.874 214.4C292.698 208.448 281.61 205.472 269.61 205.472V272H264.282Z" fill="#063D3C"/>
</svg>
