<svg width="500" height="306" viewBox="0 0 500 306" fill="none" xmlns="http://www.w3.org/2000/svg">
<rect width="500" height="305.29" fill="#02101D"/>
<path d="M34.456 139.6C34.456 151.216 40.984 158.416 53.656 161.008L64.504 163.216C69.208 164.176 71.032 166.192 71.032 170.128C71.032 174.64 66.616 177.424 59.608 177.424C52.696 177.424 48.856 174.544 48.856 169.36H33.4C33.4 182.704 43.672 191.248 59.512 191.248C75.832 191.248 86.584 182.32 86.584 168.592C86.584 157.36 80.536 151.312 67.864 148.72L57.208 146.512C52.216 145.456 50.008 143.344 50.008 139.024C50.008 134.32 54.04 131.44 60.376 131.44C66.232 131.44 69.976 134.512 69.976 139.504H85.432C85.432 126.064 75.832 117.616 60.568 117.616C45.304 117.616 34.456 126.736 34.456 139.6ZM112.444 190V161.392H139.9V190H155.452V118.96H139.9V146.992H112.444V118.96H96.892V190H112.444ZM179.901 190L184.989 175.024H207.933L212.925 190H229.437L204.189 118.96H189.021L163.677 190H179.901ZM194.589 146.8C195.453 144.208 196.221 141.52 196.509 139.888C196.797 141.616 197.661 144.4 198.429 146.8L203.517 161.968H189.501L194.589 146.8ZM265.545 190C285.801 190 299.913 175.408 299.913 154.672C299.913 133.552 285.417 118.96 264.585 118.96H237.705V190H265.545ZM263.049 133.36C275.913 133.36 283.497 141.232 283.497 154.672C283.497 167.824 276.297 175.6 264.009 175.6H253.257V133.36H263.049ZM376.4 154.384C376.4 132.688 362.192 117.712 341.552 117.712C321.008 117.712 306.8 132.784 306.8 154.48C306.8 176.176 320.912 191.152 341.456 191.152C362.096 191.152 376.4 176.08 376.4 154.384ZM359.984 154.384C359.984 167.824 353.072 176.176 341.648 176.176C330.128 176.176 323.216 168.016 323.216 154.384C323.216 140.848 330.128 132.688 341.648 132.688C353.072 132.688 359.984 140.848 359.984 154.384ZM399.69 190H414.954L428.298 143.344L441.258 190H456.426L478.122 118.96H462.282L452.778 149.968C451.53 154.096 450.474 158.032 449.034 165.232C447.786 158.416 446.634 154.096 445.482 149.776L437.13 118.96H419.754L411.018 149.776C409.77 154.192 408.618 158.224 407.466 165.232C406.314 158.224 405.161 154 403.914 149.776L394.602 118.96H378.378L399.69 190Z" fill="white"/>
<path d="M47.656 157.008L47.2552 158.967L47.2571 158.968L47.656 157.008ZM58.504 159.216L58.9039 157.256L58.9029 157.256L58.504 159.216ZM42.856 165.36H44.856V163.36H42.856V165.36ZM27.4 165.36V163.36H25.4V165.36H27.4ZM61.864 144.72L61.4582 146.678L61.4632 146.679L61.864 144.72ZM51.208 142.512L50.7941 144.469L50.8022 144.47L51.208 142.512ZM63.976 135.504H61.976V137.504H63.976V135.504ZM79.432 135.504V137.504H81.432V135.504H79.432ZM26.456 135.6C26.456 141.8 28.2084 147.013 31.8169 151.025C35.4033 155.013 40.6428 157.615 47.2552 158.967L48.0568 155.049C41.9972 153.809 37.6367 151.515 34.7911 148.351C31.9676 145.211 30.456 141.016 30.456 135.6H26.456ZM47.2571 158.968L58.1051 161.176L58.9029 157.256L48.0549 155.048L47.2571 158.968ZM58.1041 161.176C60.2838 161.62 61.4393 162.247 62.0715 162.922C62.654 163.545 63.032 164.47 63.032 166.128H67.032C67.032 163.85 66.498 161.799 64.9925 160.19C63.5367 158.633 61.4282 157.772 58.9039 157.256L58.1041 161.176ZM63.032 166.128C63.032 167.62 62.3483 168.843 60.8743 169.781C59.3237 170.767 56.8849 171.424 53.608 171.424V175.424C57.3391 175.424 60.6123 174.689 63.0218 173.155C65.5077 171.573 67.032 169.148 67.032 166.128H63.032ZM53.608 171.424C50.3874 171.424 48.1876 170.747 46.84 169.736C45.579 168.79 44.856 167.401 44.856 165.36H40.856C40.856 168.503 42.053 171.146 44.44 172.936C46.7404 174.661 49.9166 175.424 53.608 175.424V171.424ZM42.856 163.36H27.4V167.36H42.856V163.36ZM25.4 165.36C25.4 172.587 28.2026 178.635 33.2328 182.842C38.2265 187.019 45.2484 189.248 53.512 189.248V185.248C45.9356 185.248 39.9015 183.205 35.7992 179.774C31.7334 176.373 29.4 171.477 29.4 165.36H25.4ZM53.512 189.248C62.0219 189.248 69.2806 186.92 74.4499 182.603C79.654 178.258 82.584 172.021 82.584 164.592H78.584C78.584 170.891 76.138 175.982 71.8861 179.533C67.5994 183.112 61.3221 185.248 53.512 185.248V189.248ZM82.584 164.592C82.584 158.597 80.9576 153.734 77.422 150.034C73.9329 146.383 68.8051 144.098 62.2648 142.761L61.4632 146.679C67.5949 147.934 71.8271 149.969 74.53 152.798C77.1864 155.578 78.584 159.355 78.584 164.592H82.584ZM62.2698 142.762L51.6138 140.554L50.8022 144.47L61.4582 146.678L62.2698 142.762ZM51.6219 140.555C49.2833 140.061 47.9371 139.381 47.1644 138.592C46.4562 137.87 46.008 136.826 46.008 135.024H42.008C42.008 137.542 42.6638 139.714 44.3076 141.392C45.8869 143.003 48.1407 143.907 50.7941 144.469L51.6219 140.555ZM46.008 135.024C46.008 133.318 46.7046 132.021 47.9917 131.086C49.3456 130.102 51.48 129.44 54.376 129.44V125.44C50.936 125.44 47.8864 126.218 45.6403 127.85C43.3274 129.531 42.008 132.026 42.008 135.024H46.008ZM54.376 129.44C56.9732 129.44 58.8752 130.121 60.0905 131.136C61.2647 132.115 61.976 133.549 61.976 135.504H65.976C65.976 132.467 64.8153 129.869 62.6535 128.064C60.5328 126.295 57.6348 125.44 54.376 125.44V129.44ZM63.976 137.504H79.432V133.504H63.976V137.504ZM81.432 135.504C81.432 128.279 78.8342 122.234 74.0454 118.019C69.2853 113.829 62.5566 111.616 54.568 111.616V115.616C61.8435 115.616 67.5467 117.627 71.4026 121.021C75.2298 124.39 77.432 129.289 77.432 135.504H81.432ZM54.568 111.616C38.5366 111.616 26.456 121.322 26.456 135.6H30.456C30.456 124.15 40.0714 115.616 54.568 115.616V111.616ZM106.444 186V188H108.444V186H106.444ZM106.444 157.392V155.392H104.444V157.392H106.444ZM133.9 157.392H135.9V155.392H133.9V157.392ZM133.9 186H131.9V188H133.9V186ZM149.452 186V188H151.452V186H149.452ZM149.452 114.96H151.452V112.96H149.452V114.96ZM133.9 114.96V112.96H131.9V114.96H133.9ZM133.9 142.992V144.992H135.9V142.992H133.9ZM106.444 142.992H104.444V144.992H106.444V142.992ZM106.444 114.96H108.444V112.96H106.444V114.96ZM90.892 114.96V112.96H88.892V114.96H90.892ZM90.892 186H88.892V188H90.892V186ZM108.444 186V157.392H104.444V186H108.444ZM106.444 159.392H133.9V155.392H106.444V159.392ZM131.9 157.392V186H135.9V157.392H131.9ZM133.9 188H149.452V184H133.9V188ZM151.452 186V114.96H147.452V186H151.452ZM149.452 112.96H133.9V116.96H149.452V112.96ZM131.9 114.96V142.992H135.9V114.96H131.9ZM133.9 140.992H106.444V144.992H133.9V140.992ZM108.444 142.992V114.96H104.444V142.992H108.444ZM106.444 112.96H90.892V116.96H106.444V112.96ZM88.892 114.96V186H92.892V114.96H88.892ZM90.892 188H106.444V184H90.892V188ZM173.901 186V188H175.333L175.794 186.643L173.901 186ZM178.989 171.024V169.024H177.556L177.095 170.381L178.989 171.024ZM201.933 171.024L203.83 170.392L203.374 169.024H201.933V171.024ZM206.925 186L205.027 186.632L205.483 188H206.925V186ZM223.437 186V188H226.27L225.321 185.33L223.437 186ZM198.189 114.96L200.073 114.29L199.6 112.96H198.189V114.96ZM183.021 114.96V112.96H181.611L181.137 114.288L183.021 114.96ZM157.677 186L155.793 185.328L154.84 188H157.677V186ZM188.589 142.8L190.485 143.436L190.486 143.432L188.589 142.8ZM190.509 135.888L192.481 135.559L188.539 135.54L190.509 135.888ZM192.429 142.8L190.524 143.41L190.528 143.423L190.532 143.436L192.429 142.8ZM197.517 157.968V159.968H200.297L199.413 157.332L197.517 157.968ZM183.501 157.968L181.604 157.332L180.72 159.968H183.501V157.968ZM175.794 186.643L180.882 171.667L177.095 170.381L172.007 185.357L175.794 186.643ZM178.989 173.024H201.933V169.024H178.989V173.024ZM200.035 171.656L205.027 186.632L208.822 185.368L203.83 170.392L200.035 171.656ZM206.925 188H223.437V184H206.925V188ZM225.321 185.33L200.073 114.29L196.304 115.63L221.552 186.67L225.321 185.33ZM198.189 112.96H183.021V116.96H198.189V112.96ZM181.137 114.288L155.793 185.328L159.56 186.672L184.904 115.632L181.137 114.288ZM157.677 188H173.901V184H157.677V188ZM190.486 143.432C191.356 140.821 192.163 138.018 192.478 136.236L188.539 135.54C188.278 137.022 187.549 139.595 186.691 142.168L190.486 143.432ZM188.536 136.217C188.853 138.119 189.771 141.056 190.524 143.41L194.333 142.19C193.55 139.744 192.74 137.113 192.481 135.559L188.536 136.217ZM190.532 143.436L195.62 158.604L199.413 157.332L194.325 142.164L190.532 143.436ZM197.517 155.968H183.501V159.968H197.517V155.968ZM185.397 158.604L190.485 143.436L186.692 142.164L181.604 157.332L185.397 158.604ZM231.705 114.96V112.96H229.705V114.96H231.705ZM231.705 186H229.705V188H231.705V186ZM247.257 171.6H245.257V173.6H247.257V171.6ZM247.257 129.36V127.36H245.257V129.36H247.257ZM259.545 188C270.17 188 279.294 184.163 285.759 177.505C292.221 170.852 295.913 161.502 295.913 150.672H291.913C291.913 160.578 288.548 168.892 282.89 174.719C277.235 180.541 269.175 184 259.545 184V188ZM295.913 150.672C295.913 139.644 292.12 130.191 285.481 123.489C278.842 116.785 269.481 112.96 258.585 112.96V116.96C268.52 116.96 276.823 120.431 282.64 126.303C288.457 132.177 291.913 140.58 291.913 150.672H295.913ZM258.585 112.96H231.705V116.96H258.585V112.96ZM229.705 114.96V186H233.705V114.96H229.705ZM231.705 188H259.545V184H231.705V188ZM257.049 131.36C263.067 131.36 267.609 133.191 270.654 136.361C273.709 139.542 275.497 144.32 275.497 150.672H279.497C279.497 143.584 277.492 137.706 273.539 133.591C269.576 129.465 263.894 127.36 257.049 127.36V131.36ZM275.497 150.672C275.497 156.896 273.796 161.587 270.896 164.706C268.014 167.806 263.718 169.6 258.009 169.6V173.6C264.587 173.6 270.035 171.506 273.825 167.43C277.597 163.373 279.497 157.6 279.497 150.672H275.497ZM258.009 169.6H247.257V173.6H258.009V169.6ZM249.257 171.6V129.36H245.257V171.6H249.257ZM247.257 131.36H257.049V127.36H247.257V131.36ZM372.4 150.384C372.4 139.095 368.697 129.411 362.166 122.535C355.627 115.65 346.376 111.712 335.552 111.712V115.712C345.368 115.712 353.541 119.262 359.266 125.289C364.998 131.325 368.4 139.977 368.4 150.384H372.4ZM335.552 111.712C324.769 111.712 315.542 115.679 309.018 122.587C302.502 129.486 298.8 139.192 298.8 150.48H302.8C302.8 140.072 306.202 131.394 311.926 125.333C317.641 119.281 325.79 115.712 335.552 115.712V111.712ZM298.8 150.48C298.8 161.765 302.476 171.448 308.97 178.325C315.472 185.212 324.677 189.152 335.456 189.152V185.152C325.691 185.152 317.567 181.604 311.878 175.579C306.18 169.544 302.8 160.891 302.8 150.48H298.8ZM335.456 189.152C346.283 189.152 355.557 185.188 362.118 178.281C368.671 171.383 372.4 161.676 372.4 150.384H368.4C368.4 160.788 364.976 169.465 359.218 175.527C353.467 181.58 345.269 185.152 335.456 185.152V189.152ZM351.984 150.384C351.984 156.782 350.338 161.727 347.567 165.036C344.831 168.302 340.834 170.176 335.648 170.176V174.176C341.886 174.176 347.057 171.874 350.633 167.604C354.173 163.377 355.984 157.426 355.984 150.384H351.984ZM335.648 170.176C330.394 170.176 326.376 168.336 323.639 165.1C320.864 161.821 319.216 156.884 319.216 150.384H315.216C315.216 157.516 317.023 163.475 320.585 167.684C324.183 171.936 329.382 174.176 335.648 174.176V170.176ZM319.216 150.384C319.216 143.935 320.863 139.022 323.636 135.754C326.375 132.528 330.394 130.688 335.648 130.688V126.688C329.382 126.688 324.185 128.928 320.587 133.166C317.025 137.362 315.216 143.297 315.216 150.384H319.216ZM335.648 130.688C340.849 130.688 344.844 132.525 347.573 135.751C350.337 139.02 351.984 143.935 351.984 150.384H355.984C355.984 143.297 354.175 137.364 350.627 133.169C347.044 128.931 341.871 126.688 335.648 126.688V130.688ZM393.69 186L391.774 186.575L392.201 188H393.69V186ZM408.954 186V188H410.462L410.876 186.55L408.954 186ZM422.298 139.344L424.225 138.809L422.326 131.973L420.375 138.794L422.298 139.344ZM435.258 186L433.33 186.535L433.737 188H435.258V186ZM450.426 186V188H451.906L452.338 186.584L450.426 186ZM472.122 114.96L474.034 115.544L474.824 112.96H472.122V114.96ZM456.282 114.96V112.96H454.803L454.369 114.374L456.282 114.96ZM446.778 145.968L444.865 145.382L444.863 145.389L446.778 145.968ZM443.034 161.232L441.066 161.592L444.995 161.624L443.034 161.232ZM439.482 145.776L441.414 145.261L441.412 145.253L439.482 145.776ZM431.13 114.96L433.06 114.437L432.66 112.96H431.13V114.96ZM413.754 114.96V112.96H412.242L411.829 114.415L413.754 114.96ZM405.018 145.776L403.093 145.231L403.093 145.232L405.018 145.776ZM401.466 161.232L399.492 161.556H403.439L401.466 161.232ZM397.914 145.776L399.832 145.209L399.828 145.197L397.914 145.776ZM388.602 114.96L390.516 114.381L390.086 112.96H388.602V114.96ZM372.378 114.96V112.96H369.689L370.462 115.535L372.378 114.96ZM393.69 188H408.954V184H393.69V188ZM410.876 186.55L424.22 139.894L420.375 138.794L407.031 185.45L410.876 186.55ZM420.37 139.879L433.33 186.535L437.185 185.465L424.225 138.809L420.37 139.879ZM435.258 188H450.426V184H435.258V188ZM452.338 186.584L474.034 115.544L470.209 114.376L448.513 185.416L452.338 186.584ZM472.122 112.96H456.282V116.96H472.122V112.96ZM454.369 114.374L444.865 145.382L448.69 146.554L458.194 115.546L454.369 114.374ZM444.863 145.389C443.596 149.58 442.525 153.578 441.072 160.84L444.995 161.624C446.422 154.486 447.463 150.612 448.692 146.547L444.863 145.389ZM445.001 160.872C443.738 153.976 442.57 149.594 441.414 145.261L437.549 146.291C438.697 150.598 439.833 154.856 441.066 161.592L445.001 160.872ZM441.412 145.253L433.06 114.437L429.199 115.483L437.551 146.299L441.412 145.253ZM431.13 112.96H413.754V116.96H431.13V112.96ZM411.829 114.415L403.093 145.231L406.942 146.321L415.678 115.505L411.829 114.415ZM403.093 145.232C401.839 149.668 400.663 153.786 399.492 160.908L403.439 161.556C404.572 154.662 405.7 150.716 406.942 146.32L403.093 145.232ZM403.439 160.908C402.27 153.795 401.095 149.487 399.832 145.209L395.995 146.343C397.228 150.513 398.357 154.653 399.492 161.556L403.439 160.908ZM399.828 145.197L390.516 114.381L386.687 115.539L395.999 146.355L399.828 145.197ZM388.602 112.96H372.378V116.96H388.602V112.96ZM370.462 115.535L391.774 186.575L395.605 185.425L374.293 114.385L370.462 115.535Z" fill="#FF237B"/>
</svg>
