<svg width="501" height="307" viewBox="0 0 501 307" fill="none" xmlns="http://www.w3.org/2000/svg">
<rect x="0.701172" y="0.756104" width="500" height="305.288" fill="#34D399"/>
<circle cx="400" cy="205" r="100.5" stroke="#064E3B"/>
<circle cx="421.5" cy="66.5" r="39" stroke="#064E3B"/>
<circle cx="475" cy="104" r="25.5" stroke="#064E3B"/>
<circle cx="400" cy="205" r="54" fill="#064E3B"/>
<g clip-path="url(#clip0_483_251)">
<path d="M483.126 104.39C482.596 104.333 482.07 104.198 481.561 103.98C482.222 103.969 482.857 103.719 483.347 103.275C482.727 103.282 482.11 103.184 481.523 102.983C481.388 102.4 481.063 101.878 480.6 101.498C480.137 101.118 479.562 100.902 478.963 100.883C478.365 100.864 477.777 101.043 477.29 101.392C476.804 101.741 476.447 102.241 476.274 102.815C475.365 102.227 474.59 101.456 473.999 100.549C473.408 99.6433 473.014 98.623 472.843 97.5547C472.439 97.7866 472.09 98.1237 471.841 98.5541C471.618 98.9414 471.493 99.3781 471.478 99.8252C471.463 100.272 471.559 100.716 471.757 101.118C471.39 100.89 471.083 100.578 470.861 100.208L470.844 100.238C470.53 100.781 470.414 101.417 470.515 102.036C470.616 102.655 470.929 103.22 471.399 103.636C470.998 103.529 470.627 103.333 470.313 103.062C470.193 103.617 470.25 104.195 470.475 104.715C470.7 105.236 471.082 105.673 471.568 105.965C470.357 106.138 469.122 105.899 468.063 105.286C467.876 105.177 467.694 105.058 467.521 104.928C468.197 106.241 469.237 107.331 470.517 108.068C474.847 110.568 479.284 108.349 481.079 105.239C481.137 105.138 481.194 105.034 481.248 104.93C481.9 104.863 482.536 104.68 483.124 104.391L483.126 104.39V104.39Z" fill="#064E3B"/>
</g>
<g clip-path="url(#clip1_483_251)">
<path fill-rule="evenodd" clip-rule="evenodd" d="M418.761 59.8113C415.026 60.8123 412.811 64.6488 413.812 68.3845C414.613 71.3765 417.226 73.385 420.154 73.5607C420.508 73.5293 420.58 73.2925 420.533 73.115C420.49 72.9544 420.338 72.4242 420.187 71.8579C418.572 72.6258 417.937 72.0167 417.7 71.6726C417.572 71.4986 417.082 70.9869 416.751 70.9033C416.481 70.8399 416.059 70.6178 416.623 70.4576C417.153 70.3065 417.667 70.7032 417.848 70.8721C418.731 71.7317 419.626 71.1839 419.967 70.9023C419.908 70.4469 420.006 70.1035 420.156 69.8824C418.606 70.1165 416.878 69.9545 416.185 67.3683C415.988 66.633 416.086 65.9542 416.391 65.3654C416.278 65.2145 415.855 64.5849 415.978 63.5555C415.978 63.5555 416.497 63.2263 418.023 63.7503C418.523 63.4533 419.078 63.2232 419.653 63.0692C420.227 62.9152 420.822 62.8373 421.404 62.8445C422.462 61.619 423.078 61.6532 423.078 61.6532C423.699 62.4832 423.648 63.2397 423.625 63.4269C424.183 63.7847 424.606 64.3145 424.805 65.0583C425.501 67.653 424.074 68.6512 422.615 69.2234C422.917 69.369 423.237 69.7181 423.407 70.352C423.649 71.2563 423.835 71.9854 423.896 72.2136C423.944 72.3911 424.127 72.5685 424.447 72.4103C425.668 71.5974 426.603 70.4222 427.121 69.0501C427.639 67.6779 427.714 66.1779 427.335 64.7611C426.334 61.0253 422.497 58.8103 418.761 59.8113Z" fill="#064E3B"/>
</g>
<g clip-path="url(#clip2_483_251)">
<path fill-rule="evenodd" clip-rule="evenodd" d="M386.689 198.435C386.2 198.566 385.784 198.886 385.531 199.324C385.278 199.762 385.209 200.282 385.34 200.771L389.289 215.507C389.561 216.524 390.608 217.128 391.624 216.855L413.203 211.074C413.691 210.943 414.108 210.623 414.36 210.185C414.613 209.747 414.682 209.227 414.551 208.738L410.602 194.002C410.472 193.513 410.152 193.097 409.714 192.844C409.276 192.591 408.755 192.522 408.267 192.653L386.689 198.435ZM386.919 200.348C386.9 200.278 386.91 200.204 386.946 200.141C386.982 200.078 387.042 200.033 387.112 200.014L408.69 194.232C408.76 194.213 408.834 194.223 408.897 194.259C408.959 194.296 409.005 194.355 409.024 194.425L409.264 195.322L400.333 205.612C400.298 205.653 400.251 205.682 400.198 205.696C400.145 205.71 400.09 205.708 400.039 205.691L387.159 201.244L386.919 200.348ZM387.67 203.15L390.868 215.084C390.907 215.229 391.056 215.316 391.201 215.277L412.779 209.495C412.849 209.476 412.909 209.43 412.945 209.368C412.981 209.305 412.991 209.231 412.972 209.161L409.774 197.227L401.568 206.683C401.058 207.271 400.241 207.49 399.505 207.236L387.67 203.15Z" fill="#34D399"/>
</g>
<defs>
<clipPath id="clip0_483_251">
<rect width="14" height="14" fill="white" transform="translate(472.621 95) rotate(30)"/>
</clipPath>
<clipPath id="clip1_483_251">
<rect width="14" height="14" fill="white" transform="translate(412 61.623) rotate(-15)"/>
</clipPath>
<clipPath id="clip2_483_251">
<rect width="26.1533" height="26.1533" fill="white" transform="translate(384 195.77) rotate(-15)"/>
</clipPath>
</defs>
</svg>
